<?xml version="1.0" encoding="utf-8"?>
<!-- Generator: Adobe Illustrator 24.1.0, SVG Export Plug-In . SVG Version: 6.00 Build 0)  -->
<svg version="1.1" id="Layer_1" xmlns="http://www.w3.org/2000/svg" xmlns:xlink="http://www.w3.org/1999/xlink" x="0px" y="0px"
	 viewBox="0 0 32 40" style="enable-background:new 0 0 32 40;" xml:space="preserve">
<style type="text/css">
	.st0{fill:#FF3C00;}
</style>
<path class="st0" d="M16,0C7.2,0,0,7.2,0,16s7.2,16,16,16s16-7.2,16-16S24.8,0,16,0 M25.2,13.3l-8.8,8.8l-1.5,1.5
	c-0.8,0.8-2.1,0.8-2.8,0l-1.5-1.5L7.4,19c-0.8-0.8-0.8-2,0-2.8c0.8-0.8,2.1-0.8,2.8,0l3.2,3.2l8.8-8.8c0.8-0.8,2.1-0.8,2.8,0
	C25.9,11.2,25.9,12.5,25.2,13.3"/>
</svg>
