<?xml version="1.0" encoding="UTF-8"?> <!-- Generator: Adobe Illustrator 23.0.1, SVG Export Plug-In . SVG Version: 6.00 Build 0) --> <svg xmlns="http://www.w3.org/2000/svg" xmlns:xlink="http://www.w3.org/1999/xlink" id="Layer_1" x="0px" y="0px" viewBox="0 0 87.9 87.9" style="enable-background:new 0 0 87.9 87.9;" xml:space="preserve"> <style type="text/css"> .st0{fill:#FF3C00;} .st1{fill:#FFFFFF;} </style> <circle class="st0" cx="44" cy="44" r="44"></circle> <g> <path class="st1" d="M44,34.8c1.2,0,2-0.9,2-2c0-1.2-0.9-2-2-2s-2,0.9-2,2C41.9,33.9,42.8,34.8,44,34.8z"></path> <path class="st1" d="M56.9,20.2H31c-4.2,0-7.6,3.4-7.6,7.6v31.9c0,4.2,3.4,7.6,7.6,7.6h25.9c4.2,0,7.6-3.4,7.6-7.6V27.8 C64.5,23.6,61.1,20.2,56.9,20.2z M37.8,32.8c0-3.4,2.8-6.1,6.1-6.1s6.1,2.8,6.1,6.1c0,2-1,3.8-2.5,4.9l2.5,2.5L47.2,43L44,39.8 L40.7,43l-2.9-2.9l2.5-2.5C38.8,36.5,37.8,34.8,37.8,32.8z M50.1,59.4H37.8v-4.1h12.3V59.4z M56.2,51.2H31.7v-4.1h24.6V51.2z"></path> </g> </svg> 