<?xml version="1.0" encoding="UTF-8"?> <!-- Generator: Adobe Illustrator 23.0.1, SVG Export Plug-In . SVG Version: 6.00 Build 0) --> <svg xmlns="http://www.w3.org/2000/svg" xmlns:xlink="http://www.w3.org/1999/xlink" id="Layer_1" x="0px" y="0px" viewBox="0 0 87.9 87.9" style="enable-background:new 0 0 87.9 87.9;" xml:space="preserve"> <style type="text/css"> .st0{fill:#FF3C00;} .st1{fill:#FFFFFF;} </style> <circle class="st0" cx="44" cy="44" r="44"></circle> <g> <path class="st1" d="M61,36.4c-0.1-1.1-1-1.9-2.1-1.9h-4.1v-2.1c0-5.7-4.6-10.3-10.3-10.3s-10.3,4.6-10.3,10.3v2.1h-4.1 c-1.1,0-2,0.9-2.1,1.9l-2,26.8c0,0.6,0.2,1.1,0.6,1.5c0.4,0.4,0.9,0.6,1.5,0.6h33c0.6,0,1.1-0.2,1.5-0.6s0.6-1,0.6-1.5L61,36.4z M38.3,32.4c0-3.4,2.8-6.2,6.2-6.2s6.2,2.8,6.2,6.2v2.1H38.3V32.4z"></path> </g> </svg> 