<?xml version="1.0" encoding="UTF-8"?> <!-- Generator: Adobe Illustrator 23.0.1, SVG Export Plug-In . SVG Version: 6.00 Build 0) --> <svg xmlns="http://www.w3.org/2000/svg" xmlns:xlink="http://www.w3.org/1999/xlink" id="Layer_1" x="0px" y="0px" viewBox="0 0 41.3 40" style="enable-background:new 0 0 41.3 40;" xml:space="preserve"> <style type="text/css"> .st0{fill:#333333;} </style> <title>logo</title> <path class="st0" d="M41.2,32.5L40.3,27l-1.5-8.3c0-1.8-0.7-3.5-2-4.8c-1.3-1.4-3.2-2.2-5.1-2.2H9.6c-1.9,0-3.8,0.8-5.1,2.2 c-1.3,1.2-2,2.9-2.1,4.7L1,27l-1,5.6v0.2c0,1.9,0.8,3.7,2.1,5.1C3.5,39.2,5.3,40,7.2,40H34c4,0,7.2-3.2,7.3-7.2l0,0L41.2,32.5z M34.6,33.3c-0.1,0.2-0.4,0.3-0.6,0.3H7.2c-0.4,0-0.7-0.3-0.7-0.7l0,0l1-5.9l1.3-7.8V19c0-0.4,0.4-0.8,0.8-0.8h22.1l0.5,0.2 c0.2,0.2,0.2,0.3,0.2,0.6l0,0v0.2l1.4,7.8l1,5.9C34.8,33.1,34.7,33.2,34.6,33.3z"></path> <path class="st0" d="M14.9,10.1L14.9,10.1c2.8,0,5-2.2,5-5c0.1-1.3-0.4-2.7-1.4-3.6c-2-2-5.2-2-7.2,0c-1,0.9-1.5,2.3-1.4,3.6 c-0.1,1.3,0.5,2.6,1.4,3.5C12.2,9.6,13.5,10.1,14.9,10.1z"></path> <path class="st0" d="M26.1,10.1h0.1c2.8,0,5-2.2,5-5c0-1.4-0.5-2.7-1.5-3.6c-0.9-1-2.2-1.5-3.5-1.5c-1.4,0-2.7,0.5-3.6,1.5 c-1,0.9-1.5,2.2-1.5,3.6c0,1.3,0.5,2.6,1.5,3.5C23.5,9.6,24.8,10.1,26.1,10.1z"></path> </svg> 