<?xml version="1.0" encoding="UTF-8"?> <!-- Generator: Adobe Illustrator 23.0.1, SVG Export Plug-In . SVG Version: 6.00 Build 0) --> <svg xmlns="http://www.w3.org/2000/svg" xmlns:xlink="http://www.w3.org/1999/xlink" id="Layer_1" x="0px" y="0px" viewBox="0 0 245.4 94.3" style="enable-background:new 0 0 245.4 94.3;" xml:space="preserve"> <style type="text/css"> .st0{fill-rule:evenodd;clip-rule:evenodd;fill:#FD0C15;} .st1{fill-rule:evenodd;clip-rule:evenodd;fill:#F3AE12;} </style> <g> <path class="st0" d="M231.6,34.1c0-2.7,2.1-4.8,4.6-4.8c2.6,0,4.6,2.2,4.6,4.8c0,2.7-2,4.8-4.6,4.8C233.7,39,231.6,36.9,231.6,34.1 L231.6,34.1L231.6,34.1z M236.2,37.9c2,0,3.5-1.7,3.5-3.7c0-2-1.6-3.7-3.5-3.7c-2,0-3.5,1.7-3.5,3.7 C232.7,36.2,234.2,37.9,236.2,37.9L236.2,37.9L236.2,37.9z M235.6,36.3h-1V32h1.7c0.3,0,0.8,0,1,0.2c0.3,0.2,0.5,0.6,0.5,1 c0,0.5-0.3,0.9-0.7,1l0.8,1.9h-1l-0.6-1.7h-0.7V36.3L235.6,36.3L235.6,36.3z M235.6,33.9h0.6c0.2,0,0.4,0,0.6-0.1 c0.1-0.1,0.2-0.3,0.2-0.5c0-0.1-0.1-0.3-0.2-0.4c-0.1-0.1-0.4-0.1-0.6-0.1l-0.5,0L235.6,33.9L235.6,33.9L235.6,33.9z"></path> <path class="st0" d="M165.6,2l-1.3,8.2c-2.7-1.5-4.7-2-6.9-2c-5.7,0-9.8,5.9-9.8,14.2c0,5.7,2.7,9.2,7.2,9.2c1.9,0,4-0.6,6.6-2 l-1.3,8.7c-2.9,0.8-4.7,1.1-6.8,1.1c-8.3,0-13.5-6.3-13.5-16.3c0-13.5,7.1-23,17.4-23c1.3,0,2.5,0.1,3.5,0.4l3.2,0.8 C164.7,1.6,164.9,1.7,165.6,2L165.6,2L165.6,2z"></path> <path class="st0" d="M140,7.6c-0.2-0.1-0.5-0.1-0.8-0.1c-2.5,0-4,1.3-6.4,5l0.7-4.7h-7l-4.7,30.8h7.7c2.8-18.8,3.5-22.1,7.2-22.1 c0.2,0,0.3,0,0.6,0c0.7-3.7,1.6-6.4,2.9-8.9L140,7.6L140,7.6L140,7.6z"></path> <path class="st0" d="M93.8,38.3c-2.1,0.7-3.8,1-5.5,1c-3.9,0-6.1-2.4-6.1-6.8c0-0.8,0.1-1.8,0.2-2.8l0.5-3l0.3-2.4l3.4-21h7.7 l-0.9,4.5h4l-1.1,7.5l-3.9,0l-2,12.8c-0.1,0.6-0.1,1-0.1,1.3c0,1.6,0.8,2.3,2.7,2.3c0.9,0,1.5-0.1,2.1-0.3L93.8,38.3L93.8,38.3 L93.8,38.3z"></path> <path class="st0" d="M63.4,17.6c0,3.9,1.8,6.6,5.9,8.6c3.1,1.5,3.6,2,3.6,3.4c0,1.9-1.4,2.8-4.4,2.8c-2.3,0-4.4-0.3-6.9-1.3l-1,7.1 l0.3,0.1l1.4,0.3c0.5,0.1,1.1,0.2,2,0.3c1.8,0.1,3.3,0.3,4.3,0.3c8.1,0,11.9-3.3,11.9-10.3c0-4.2-1.5-6.7-5.4-8.6 c-3.2-1.5-3.6-1.9-3.6-3.4c0-1.7,1.3-2.5,3.8-2.5c1.5,0,3.6,0.2,5.5,0.5l1.1-7.1c-2-0.3-5-0.6-6.8-0.6 C66.3,7.2,63.3,11.9,63.4,17.6L63.4,17.6L63.4,17.6z"></path> <path class="st0" d="M227.1,38.6h-7.3l0.3-3C218,38,215.8,39,213,39c-5.7,0-9.4-5.1-9.4-12.8c0-10.3,5.7-18.9,12.6-18.9 c3,0,5.2,1.3,7.4,4.2l1.7-10.8h7.6L227.1,38.6L227.1,38.6L227.1,38.6z M215.7,31.4c3.6,0,6.1-4.3,6.1-10.4c0-3.9-1.5-6.1-4.1-6.1 c-3.5,0-6,4.3-6,10.3C211.7,29.3,213.1,31.4,215.7,31.4L215.7,31.4L215.7,31.4z"></path> <path class="st0" d="M118.3,38c-2.7,0.8-5.2,1.3-8,1.3c-8.6,0-13.1-4.7-13.1-13.8c0-10.6,5.7-18.4,13.5-18.4 c6.4,0,10.4,4.4,10.4,11.2c0,2.2-0.3,4.5-1,7.6h-15.4c-0.1,0.5-0.1,0.7-0.1,1c0,3.6,2.3,5.4,6.8,5.4c2.7,0,5.2-0.6,8-2L118.3,38 L118.3,38L118.3,38z M113.9,19.6c0.1-0.6,0.1-1.2,0.1-1.5c0-2.5-1.3-4-3.6-4c-2.4,0-4.2,2-4.9,5.5H113.9L113.9,19.6L113.9,19.6z"></path> <polygon class="st0" points="32.4,38.6 24.7,38.6 29.1,9.5 19.2,38.6 14,38.6 13.3,9.7 8.7,38.6 1.5,38.6 7.5,0.8 18.6,0.8 18.8,24.2 26.4,0.8 38.4,0.8 32.4,38.6 "></polygon> <path class="st0" d="M52.3,24.9c-0.8-0.1-1.2-0.1-1.7-0.1c-4.4,0-6.6,1.6-6.6,4.7c0,1.9,1.1,3.1,2.8,3.1 C49.8,32.6,52.2,29.5,52.3,24.9L52.3,24.9L52.3,24.9z M57.9,38.6h-6.4l0.1-3.2c-2,2.6-4.5,3.7-8.1,3.7c-4.2,0-7.1-3.4-7.1-8.4 c0-7.5,5-11.9,13.5-11.9c0.9,0,2,0.1,3.1,0.2c0.2-1,0.3-1.5,0.3-2c0-2-1.3-2.8-5-2.8c-2.2,0-4.7,0.3-6.4,0.9l-1,0.3l-0.7,0.2l1-6.9 c3.8-1.2,6.4-1.7,9.2-1.7c6.6,0,10.1,3.1,10.1,9c0,1.5-0.1,2.7-0.6,6.1l-1.5,11l-0.3,2l-0.2,1.5l-0.1,1.1L57.9,38.6L57.9,38.6 L57.9,38.6z"></path> <path class="st0" d="M178.9,24.9c-0.8-0.1-1.2-0.1-1.7-0.1c-4.4,0-6.6,1.6-6.6,4.7c0,1.9,1.1,3.1,2.8,3.1 C176.5,32.6,178.8,29.5,178.9,24.9L178.9,24.9L178.9,24.9z M184.5,38.6h-6.4l0.1-3.2c-2,2.6-4.5,3.7-8.1,3.7 c-4.2,0-7.1-3.4-7.1-8.4c0-7.5,5-11.9,13.5-11.9c0.8,0,2,0.1,3.1,0.2c0.2-1,0.3-1.5,0.3-2c0-2-1.3-2.8-5-2.8 c-2.2,0-4.7,0.3-6.4,0.9l-1.1,0.3l-0.7,0.2l1-6.9c3.8-1.2,6.4-1.7,9.2-1.7c6.6,0,10.1,3.1,10.1,9c0,1.5-0.1,2.7-0.6,6.1L185,33.1 l-0.2,2l-0.2,1.5l-0.1,1L184.5,38.6L184.5,38.6L184.5,38.6z"></path> <path class="st0" d="M206.1,7.6c-0.2-0.1-0.5-0.1-0.8-0.1c-2.5,0-4,1.3-6.4,5l0.7-4.7h-7l-4.7,30.8h7.7c2.8-18.8,3.5-22.1,7.2-22.1 c0.2,0,0.2,0,0.6,0c0.7-3.7,1.7-6.4,2.9-8.9L206.1,7.6L206.1,7.6L206.1,7.6z"></path> <path class="st1" d="M173.7,68.6c0,7-2.2,11.1-5.6,11.1c-2.5,0.1-4-2.7-4-6.8c0-4.9,2.2-10.5,5.7-10.5 C172.7,62.3,173.7,65.3,173.7,68.6L173.7,68.6L173.7,68.6z M181.3,68.6c0-7.7-3.8-13.8-11-13.8c-8.3,0-13.7,7.3-13.7,18.2 c0,7.7,3.2,14.1,11,14.1C175.5,87.1,181.3,81.5,181.3,68.6L181.3,68.6L181.3,68.6z"></path> <path class="st1" d="M159,49.4l-1.2,8.2c-2.6-1.5-4.4-2-6.4-2c-5.4,0-9.1,5.9-9.1,14.2c0,5.7,2.5,9.2,6.7,9.2c1.8,0,3.8-0.6,6.1-2 l-1.3,8.7c-2.7,0.8-4.4,1.1-6.4,1.1c-7.7,0-12.6-6.3-12.6-16.3c0-13.5,6.7-23,16.3-23c1.3,0,2.3,0.1,3.2,0.4l2.9,0.8 C158.2,49,158.4,49.1,159,49.4L159,49.4L159,49.4z"></path> <path class="st1" d="M111.4,55c-0.2-0.1-0.5-0.1-0.8-0.1c-2.4,0-3.7,1.3-5.9,5l0.7-4.7h-6.5l-4.4,30.8h7.2 c2.6-18.8,3.3-22.1,6.7-22.1c0.2,0,0.2,0,0.6,0.1c0.6-3.7,1.5-6.4,2.7-8.9L111.4,55L111.4,55L111.4,55z"></path> <path class="st1" d="M205.5,85.8h-6.8l0.3-3c-2,2.4-4,3.4-6.7,3.4c-5.2,0-8.7-5.1-8.7-12.8c0-10.3,5.4-18.9,11.7-18.9 c2.8,0,5,1.3,6.9,4.3l1.6-10.8h7.1L205.5,85.8L205.5,85.8L205.5,85.8z M194.8,78.5c3.4,0,5.7-4.3,5.7-10.4c0-3.9-1.3-6-3.8-6 c-3.3,0-5.6,4.3-5.6,10.3C191.1,76.5,192.3,78.5,194.8,78.5L194.8,78.5L194.8,78.5z"></path> <path class="st1" d="M43.8,85.7c-2.4,0.8-4.8,1.3-7.4,1.3c-8,0-12.2-4.7-12.2-13.8c0-10.5,5.4-18.4,12.6-18.4 c5.9,0,9.7,4.3,9.7,11.2c0,2.2-0.3,4.5-0.9,7.6H31.2c-0.1,0.5-0.1,0.7-0.1,1c0,3.6,2.2,5.4,6.4,5.4c2.6,0,4.9-0.6,7.5-2L43.8,85.7 L43.8,85.7L43.8,85.7z M39.7,67.3c0-0.6,0.1-1.2,0.1-1.5c0-2.5-1.3-4-3.4-4c-2.3,0-3.9,2-4.6,5.5H39.7L39.7,67.3L39.7,67.3z"></path> <path class="st1" d="M129.5,85.7c-2.4,0.8-4.8,1.3-7.4,1.3c-8.1,0-12.3-4.7-12.3-13.8c0-10.5,5.4-18.4,12.6-18.4 c5.9,0,9.8,4.3,9.8,11.2c0,2.2-0.3,4.5-0.9,7.6h-14.3c-0.1,0.5-0.1,0.7-0.1,1c0,3.6,2.2,5.4,6.4,5.4c2.6,0,4.9-0.6,7.5-2 L129.5,85.7L129.5,85.7L129.5,85.7z M125.5,67.3c0.1-0.6,0.1-1.2,0.1-1.5c0-2.5-1.3-4-3.4-4c-2.3,0-3.9,2-4.6,5.5H125.5L125.5,67.3 L125.5,67.3z"></path> <path class="st1" d="M230,85.7c-2.5,0.8-4.9,1.3-7.4,1.3c-8,0-12.3-4.7-12.3-13.8c0-10.5,5.4-18.4,12.6-18.4 c5.9,0,9.7,4.3,9.7,11.2c0,2.2-0.3,4.5-0.9,7.6h-14.3c-0.1,0.5-0.1,0.7-0.1,1c0,3.6,2.2,5.4,6.4,5.4c2.6,0,4.9-0.6,7.5-2L230,85.7 L230,85.7L230,85.7z M226,67.3c0-0.6,0.1-1.2,0.1-1.5c0-2.5-1.3-4-3.4-4c-2.3,0-3.9,2-4.6,5.5H226L226,67.3L226,67.3z"></path> <path class="st1" d="M22.4,56.4c-1.4-1-3.4-1.7-6-1.7c-2.9,0-5.2,0.6-5.2,3.7c0,5.4,10.6,3.4,10.6,15.1c0,10.7-7,13.5-13.3,13.5 c-2.8,0-6.1-0.9-8.4-2l1.7-7.8c1.5,1.3,4.3,2.2,6.8,2.2c2.3,0,5.8-0.6,5.8-4.6c0-6.2-10.6-3.9-10.6-14.8c0-10,6.2-12.9,12.2-12.9 c3.4,0,6.6,0.5,8.4,1.7L22.4,56.4L22.4,56.4L22.4,56.4z"></path> <path class="st1" d="M64.9,85.7c-1.5,0.7-3.5,1.2-6.4,1.2c-6.3,0-10.2-6.3-10.2-14c0-10.1,5.7-18,14-18c1.8,0,4.6,0.8,6.8,2 l-1.6,7.3c-1.5-1-3.1-1.7-4.8-1.7c-3.8,0-6.6,3.6-6.6,9.8c0,3.6,2,6.6,5.2,6.6c1.9,0,3.2-0.4,4.8-1.3L64.9,85.7L64.9,85.7 L64.9,85.7z"></path> <path class="st1" d="M91.8,77.9c-0.3,2.7-0.7,5.2-0.9,8H84l0.6-5h-0.1c-2.2,3.4-4.4,5.7-8.4,5.7c-4.3,0-6.7-4.6-6.7-10.5 c0-2.1,0.1-3.2,0.6-6.4l2-14.2h7.7l-2.1,14.3c-0.2,1.5-0.5,3.1-0.5,4.7c0,1.8,0.8,3.6,2.9,3.5c3.1,0,5-3.8,5.6-8.4l2.2-14.1h7.5 L91.8,77.9L91.8,77.9L91.8,77.9z"></path> <polygon class="st1" points="237.2,85.5 236,85.5 236,80.4 234.4,80.4 234.4,79.3 238.9,79.3 238.9,80.4 237.2,80.4 237.2,85.5 "></polygon> <polygon class="st1" points="245,85.5 243.9,85.5 243.9,80.4 243.9,80.4 242.8,85.5 241.7,85.5 240.6,80.4 240.6,80.4 240.6,85.5 239.5,85.5 239.5,79.3 241.3,79.3 242.3,84.2 242.3,84.2 243.3,79.3 245,79.3 245,85.5 "></polygon> </g> </svg> 