<?xml version="1.0" encoding="UTF-8"?> <!-- Generator: Adobe Illustrator 23.0.1, SVG Export Plug-In . SVG Version: 6.00 Build 0) --> <svg xmlns="http://www.w3.org/2000/svg" xmlns:xlink="http://www.w3.org/1999/xlink" id="Layer_1" x="0px" y="0px" viewBox="0 0 112.5 86.9" style="enable-background:new 0 0 112.5 86.9;" xml:space="preserve"> <style type="text/css"> .st0{fill:#1D1D1B;} .st1{fill:#E20D17;} .st2{fill:#EA610A;} .st3{fill:#F59E00;} </style> <g> <g> <path class="st0" d="M26.6,71.3c-0.2-0.2-0.6-0.5-0.9-0.6c-0.3-0.2-0.7-0.2-1.2-0.2c-0.2,0-0.5,0-0.7,0.1c-0.2,0-0.5,0.1-0.7,0.2 c-0.2,0.1-0.5,0.2-0.6,0.4c-0.2,0.2-0.4,0.4-0.6,0.6c-0.2-0.4-0.6-0.7-1-1c-0.4-0.2-0.9-0.3-1.4-0.3c-0.2,0-0.4,0-0.6,0.1 c-0.2,0-0.4,0.1-0.6,0.2s-0.4,0.2-0.6,0.3c-0.2,0.2-0.3,0.3-0.5,0.6v-0.9h-1.5v7.4h1.6V74c0-0.3,0.1-0.6,0.2-0.8 c0.1-0.2,0.2-0.5,0.4-0.6c0.2-0.2,0.4-0.3,0.6-0.4c0.2-0.1,0.5-0.2,0.7-0.2c0.6,0,1,0.2,1.2,0.5c0.3,0.3,0.4,0.8,0.4,1.4V78h1.6 v-4.1c0-0.3,0.1-0.6,0.2-0.8s0.2-0.5,0.4-0.6s0.4-0.3,0.6-0.4c0.2-0.1,0.5-0.2,0.7-0.2c0.6,0,1,0.2,1.2,0.5 c0.3,0.3,0.4,0.8,0.4,1.4v4.1h1.6v-4.6c0-0.4-0.1-0.8-0.2-1.2C27.1,71.8,26.8,71.5,26.6,71.3z"></path> <path class="st0" d="M34.8,71.5c-0.2-0.3-0.6-0.6-1-0.8c-0.4-0.2-0.8-0.3-1.4-0.3c-0.5,0-1,0.1-1.4,0.3c-0.5,0.2-0.8,0.5-1.2,0.8 c-0.3,0.3-0.6,0.7-0.8,1.2c-0.2,0.5-0.3,1-0.3,1.5s0.1,1.1,0.3,1.5c0.2,0.5,0.5,0.9,0.8,1.2c0.3,0.3,0.7,0.6,1.2,0.8 c0.5,0.2,1,0.3,1.4,0.3c0.6,0,1-0.1,1.4-0.3c0.4-0.2,0.7-0.5,1-0.8v0.9h1.6v-7.4h-1.6V71.5z M34.8,75.3c-0.1,0.3-0.2,0.6-0.5,0.7 c-0.2,0.2-0.4,0.4-0.7,0.5c-0.2,0.2-0.6,0.2-0.9,0.2c-0.3,0-0.6-0.1-1-0.2c-0.2-0.2-0.5-0.3-0.7-0.5c-0.2-0.2-0.3-0.5-0.4-0.7 c-0.1-0.3-0.2-0.6-0.2-0.9c0-0.3,0.1-0.6,0.2-0.9c0.1-0.3,0.2-0.6,0.4-0.7c0.2-0.2,0.4-0.4,0.7-0.5c0.2-0.2,0.6-0.2,1-0.2 c0.3,0,0.6,0.1,0.9,0.2c0.2,0.2,0.5,0.3,0.7,0.5c0.2,0.2,0.3,0.5,0.5,0.7c0.1,0.3,0.2,0.6,0.2,1S34.9,75,34.8,75.3z"></path> <path class="st0" d="M43.9,74.3c-0.5-0.3-1-0.6-1.9-0.7l-0.8-0.1c-0.2,0-0.3-0.1-0.5-0.1s-0.2-0.1-0.4-0.2 c-0.1-0.1-0.2-0.2-0.2-0.2C40,73,40,72.9,40,72.7c0-0.2,0.2-0.5,0.4-0.6s0.6-0.2,1-0.2c0.2,0,0.5,0,0.7,0.1 c0.2,0.1,0.4,0.1,0.6,0.2s0.4,0.2,0.6,0.2c0.2,0.1,0.3,0.2,0.4,0.2l0.7-1.3c-0.4-0.2-0.8-0.4-1.4-0.6c-0.5-0.2-1-0.2-1.6-0.2 c-0.5,0-0.9,0.1-1.3,0.2c-0.4,0.1-0.7,0.2-1,0.5s-0.5,0.5-0.6,0.7c-0.2,0.3-0.2,0.6-0.2,1c0,0.6,0.2,1,0.6,1.4 c0.4,0.4,1,0.6,1.8,0.7l0.8,0.1c0.5,0.1,0.8,0.2,1,0.3c0.2,0.2,0.3,0.3,0.3,0.5c0,0.2-0.2,0.5-0.4,0.6c-0.3,0.2-0.7,0.2-1.3,0.2 c-0.3,0-0.6,0-0.8-0.1c-0.2-0.1-0.5-0.1-0.6-0.2c-0.2-0.1-0.4-0.2-0.6-0.2c-0.2-0.1-0.3-0.2-0.4-0.3l-0.7,1.2 c0.2,0.2,0.6,0.4,0.8,0.5c0.3,0.2,0.6,0.2,0.9,0.3c0.3,0.1,0.6,0.1,0.8,0.2c0.2,0,0.5,0,0.6,0c0.6,0,1-0.1,1.4-0.2 c0.4-0.1,0.8-0.3,1-0.5c0.3-0.2,0.5-0.5,0.6-0.8c0.2-0.3,0.2-0.6,0.2-1C44.5,75.1,44.3,74.6,43.9,74.3z"></path> <path class="st0" d="M58.9,71.5c-0.3-0.3-0.6-0.6-1.1-0.8c-0.4-0.2-0.9-0.3-1.4-0.3s-1,0.1-1.5,0.3c-0.5,0.2-0.8,0.5-1.1,0.8 c-0.3,0.3-0.6,0.7-0.7,1.2c-0.2,0.5-0.2,1-0.2,1.6c0,0.6,0.1,1.1,0.2,1.6c0.2,0.5,0.5,0.9,0.8,1.2c0.3,0.3,0.7,0.6,1.2,0.8 c0.5,0.2,1,0.2,1.5,0.2s1.1-0.1,1.6-0.2c0.5-0.2,1-0.4,1.4-0.8L58.8,76c-0.3,0.2-0.6,0.4-1,0.6c-0.4,0.2-0.7,0.2-1.1,0.2 c-0.2,0-0.5,0-0.7-0.1s-0.5-0.2-0.6-0.3c-0.2-0.2-0.4-0.3-0.5-0.6c-0.2-0.2-0.2-0.6-0.3-0.9h5.4c0-0.1,0-0.2,0-0.3 c0-0.1,0-0.2,0-0.3c0-0.6-0.1-1.1-0.2-1.6C59.5,72.2,59.3,71.8,58.9,71.5z M54.4,73.7c0.1-0.2,0.1-0.5,0.2-0.7 c0.1-0.2,0.2-0.4,0.4-0.6c0.2-0.2,0.3-0.3,0.6-0.4s0.5-0.2,0.8-0.2c0.5,0,1,0.2,1.3,0.5c0.3,0.3,0.6,0.8,0.6,1.4H54.4L54.4,73.7z"></path> <path class="st0" d="M80.3,71.5c-0.2-0.3-0.6-0.6-1-0.8c-0.4-0.2-0.8-0.3-1.4-0.3c-0.5,0-1,0.1-1.4,0.3c-0.5,0.2-0.8,0.5-1.2,0.8 c-0.3,0.3-0.6,0.7-0.8,1.2c-0.2,0.5-0.3,1-0.3,1.5s0.1,1.1,0.3,1.5c0.2,0.5,0.5,0.9,0.8,1.2c0.3,0.3,0.7,0.6,1.2,0.8 c0.5,0.2,1,0.3,1.4,0.3c0.6,0,1-0.1,1.4-0.3c0.4-0.2,0.7-0.5,1-0.8v0.9h1.6v-7.4h-1.6V71.5z M80.2,75.3c-0.1,0.3-0.2,0.6-0.5,0.7 c-0.2,0.2-0.4,0.4-0.7,0.5c-0.2,0.2-0.6,0.2-0.9,0.2c-0.3,0-0.6-0.1-1-0.2c-0.2-0.2-0.5-0.3-0.7-0.5c-0.2-0.2-0.3-0.5-0.4-0.7 c-0.1-0.3-0.2-0.6-0.2-0.9c0-0.3,0.1-0.6,0.2-0.9c0.1-0.3,0.2-0.6,0.4-0.7c0.2-0.2,0.4-0.4,0.7-0.5c0.2-0.2,0.6-0.2,1-0.2 c0.3,0,0.6,0.1,0.9,0.2c0.2,0.2,0.5,0.3,0.7,0.5c0.2,0.2,0.3,0.5,0.5,0.7c0.1,0.3,0.2,0.6,0.2,1S80.4,75,80.2,75.3z"></path> <path class="st0" d="M50.8,76.6c-0.2,0.1-0.5,0.2-0.8,0.2c-0.2,0-0.3,0-0.5-0.1c-0.2-0.1-0.2-0.2-0.4-0.2 c-0.1-0.1-0.2-0.2-0.2-0.4c-0.1-0.2-0.1-0.4-0.1-0.6v-3.2h2.6v-1.4h-2.6v-2.2h-1.6v2.2h-1.4v1.4h1.4v3.2c0,1,0.2,1.7,0.7,2.2 c0.5,0.5,1.1,0.7,1.9,0.7c0.5,0,0.9-0.1,1.3-0.2c0.2-0.1,0.5-0.2,0.7-0.3l-0.6-1.4C51.1,76.4,50.9,76.5,50.8,76.6z"></path> <path class="st0" d="M65.3,70.5c-0.5,0-0.9,0.1-1.2,0.2c-0.4,0.2-0.6,0.6-0.9,0.9v-1h-1.4V78h1.4v-4.1c0-0.3,0.1-0.6,0.2-0.8 s0.2-0.5,0.4-0.6c0.2-0.2,0.3-0.3,0.6-0.4c0.2-0.1,0.5-0.2,0.7-0.2c0.2,0,0.4,0,0.6,0.1c0.1,0,0.2,0.1,0.3,0.1l0.5-1.5 c-0.2-0.1-0.2-0.1-0.4-0.1C65.7,70.5,65.5,70.5,65.3,70.5z"></path> <path class="st0" d="M87.7,70.5c-0.5,0-0.9,0.1-1.2,0.2c-0.4,0.2-0.6,0.6-0.9,0.9v-1h-1.4V78h1.4v-4.1c0-0.3,0.1-0.6,0.2-0.8 s0.2-0.5,0.4-0.6c0.2-0.2,0.3-0.3,0.6-0.4c0.2-0.1,0.5-0.2,0.7-0.2c0.2,0,0.4,0,0.6,0.1c0.1,0,0.2,0.1,0.3,0.1l0.5-1.5 c-0.2-0.1-0.2-0.1-0.4-0.1C88.2,70.5,87.9,70.5,87.7,70.5z"></path> <path class="st0" d="M95.2,67.6v3.9c-0.2-0.3-0.6-0.6-1-0.8c-0.4-0.2-0.8-0.3-1.4-0.3c-0.5,0-1,0.1-1.4,0.3 c-0.5,0.2-0.8,0.5-1.2,0.8c-0.3,0.3-0.6,0.7-0.8,1.2c-0.2,0.5-0.3,1-0.3,1.5s0.1,1.1,0.3,1.5c0.2,0.5,0.5,0.9,0.8,1.2 c0.3,0.3,0.7,0.6,1.2,0.8c0.5,0.2,1,0.3,1.4,0.3c0.6,0,1-0.1,1.4-0.3c0.4-0.2,0.7-0.5,1-0.8v0.9h1.6V67.4h-1.6V67.6z M95.1,75.3 c-0.1,0.3-0.2,0.6-0.5,0.7c-0.2,0.2-0.4,0.4-0.7,0.5c-0.2,0.2-0.6,0.2-0.9,0.2c-0.3,0-0.6-0.1-1-0.2c-0.2-0.2-0.5-0.3-0.7-0.5 c-0.2-0.2-0.3-0.5-0.4-0.7c-0.1-0.3-0.2-0.6-0.2-0.9c0-0.3,0.1-0.6,0.2-0.9c0.1-0.3,0.2-0.6,0.4-0.7c0.2-0.2,0.4-0.4,0.7-0.5 c0.2-0.2,0.6-0.2,1-0.2c0.3,0,0.6,0.1,0.9,0.2c0.2,0.2,0.5,0.3,0.7,0.5c0.2,0.2,0.3,0.5,0.5,0.7c0.1,0.3,0.2,0.6,0.2,1 S95.2,75,95.1,75.3z"></path> <path class="st0" d="M69.1,72.6c0.2-0.2,0.5-0.4,0.7-0.5c0.3-0.1,0.6-0.2,0.9-0.2l0,0c0.4,0,0.7,0.1,1,0.2 c0.3,0.1,0.6,0.2,0.8,0.5l0.8-1.3c-0.3-0.2-0.6-0.4-1-0.6c-0.5-0.2-1-0.3-1.6-0.3c-0.6,0-1.1,0.1-1.6,0.3 c-0.5,0.2-0.9,0.5-1.3,0.8c-0.3,0.3-0.6,0.7-0.8,1.2c-0.2,0.5-0.3,1-0.3,1.5c0,0.6,0.1,1,0.3,1.5c0.2,0.5,0.5,0.9,0.8,1.2 c0.3,0.3,0.8,0.6,1.3,0.8s1,0.3,1.6,0.3c0.6,0,1.1-0.1,1.6-0.3c0.4-0.2,0.7-0.3,1-0.6L72.5,76c-0.2,0.2-0.5,0.3-0.8,0.5 c-0.3,0.1-0.6,0.2-1,0.2l0,0c-0.3,0-0.6-0.1-0.9-0.2c-0.3-0.1-0.6-0.2-0.7-0.5c-0.2-0.2-0.4-0.5-0.5-0.7c-0.1-0.3-0.2-0.6-0.2-1 c0-0.3,0.1-0.6,0.2-1C68.8,73,68.9,72.8,69.1,72.6z"></path> </g> <g> <path class="st0" d="M100.2,76.2c0.1,0,0.2,0,0.3,0.1c0.1,0,0.2,0.1,0.2,0.2c0.1,0.1,0.2,0.2,0.2,0.2c0.1,0.1,0.1,0.2,0.1,0.3 c0,0.1,0,0.2-0.1,0.3c-0.1,0.1-0.1,0.2-0.2,0.2c-0.1,0.1-0.2,0.2-0.2,0.2c-0.1,0-0.2,0.1-0.3,0.1c-0.1,0-0.2,0-0.3-0.1 c-0.1,0-0.2-0.1-0.2-0.2c-0.1-0.1-0.2-0.2-0.2-0.2c0-0.1-0.1-0.2-0.1-0.3c0-0.1,0-0.2,0.1-0.3c0-0.1,0.1-0.2,0.2-0.2 c0.1-0.1,0.2-0.2,0.2-0.2C100,76.2,100.1,76.2,100.2,76.2z M100.2,77.4c0.1,0,0.2,0,0.2-0.1c0.1,0,0.2-0.1,0.2-0.1 c0.1-0.1,0.1-0.1,0.1-0.2s0.1-0.2,0.1-0.2c0-0.1,0-0.2-0.1-0.2c0-0.1-0.1-0.2-0.1-0.2c-0.1-0.1-0.1-0.1-0.2-0.1 c-0.1,0-0.2-0.1-0.2-0.1c-0.1,0-0.2,0-0.2,0.1c-0.1,0-0.2,0.1-0.2,0.1c-0.1,0.1-0.1,0.1-0.1,0.2c0,0.1-0.1,0.2-0.1,0.2 c0,0.1,0,0.2,0.1,0.2c0,0.1,0.1,0.2,0.1,0.2c0.1,0.1,0.1,0.1,0.2,0.1C100,77.4,100.1,77.4,100.2,77.4z M100.2,76.6 c0.1,0,0.2,0,0.2,0.1c0.1,0.1,0.1,0.1,0.1,0.2c0,0.1,0,0.1-0.1,0.2c0,0-0.1,0.1-0.2,0.1l0.2,0.2h-0.2l-0.2-0.2l0,0v0.2H100v-0.6 L100.2,76.6L100.2,76.6z M100.1,76.7v0.2h0.2h0.1c0,0,0,0,0-0.1c0,0,0,0,0-0.1c0,0,0,0-0.1,0H100.1L100.1,76.7z"></path> </g> <g> <path class="st1" d="M45.6,36.4c0-8.8,4.2-16.7,10.6-21.8c-4.7-3.8-10.7-6-17.2-6c-15.4,0-27.8,12.4-27.8,27.8S23.6,64.2,39,64.2 c6.5,0,12.5-2.2,17.2-6C49.7,53.2,45.6,45.3,45.6,36.4z"></path> <ellipse class="st2" cx="56.2" cy="36.4" rx="10.6" ry="21.8"></ellipse> <path class="st3" d="M99.4,51.5v-0.8H99v-0.2h0.9v0.2h-0.3v0.8H99.4z M101.1,51.5v-0.7l-0.2,0.6h-0.2l-0.2-0.6v0.7h-0.2v-1h0.3 l0.2,0.6l0.2-0.6h0.3v1H101.1z"></path> <path class="st3" d="M73.4,8.7c-6.5,0-12.5,2.2-17.2,6c6.4,5.1,10.6,13,10.6,21.8s-4.2,16.7-10.6,21.8c4.7,3.8,10.7,6,17.2,6 c15.4,0,27.8-12.4,27.8-27.8S88.8,8.7,73.4,8.7z"></path> </g> </g> </svg> 