<?xml version="1.0" encoding="UTF-8"?> <!-- Generator: Adobe Illustrator 23.0.1, SVG Export Plug-In . SVG Version: 6.00 Build 0) --> <svg xmlns="http://www.w3.org/2000/svg" xmlns:xlink="http://www.w3.org/1999/xlink" id="Layer_1" x="0px" y="0px" viewBox="0 0 128 144.2" style="enable-background:new 0 0 128 144.2;" xml:space="preserve"> <path d="M127.8,108.2c-1.5-23.6-32.6-28.6-32.6-28.6c-7.9-1.4-11.2-8.2-12.5-12.6c6.1-6.8,10.4-15.7,12.7-24.3 c0.9-3.3,1.4-6.7,1.4-10.1C96.9,14.6,82.3,0,64.2,0c-8.8,0-16.8,3.5-22.7,9.1c-6.2,5.9-10,14.2-10,23.4c0,3.7,0.5,7.6,1.4,11.5 c0.1,0.6,0.3,1.3,0.3,1.3c2.1,8.2,6.2,16.3,11.4,22.3c0.2,0.3,0.5,0.5,0.7,0.8c-1.6,4.3-4.9,9.8-11.9,11.1c0,0-31.1,5-32.6,28.6 c0,0-1.9,12.4-0.3,27.1c0.5,5,5.1,9,10.1,9H118c5,0,9.5-4,10-9C129.2,122.1,127.8,108.2,127.8,108.2z M63.8,76.6 c5,0,10-1.6,14.3-5.1c0.4-0.3,0.8-0.7,1.2-1c0.5,1.2,1,2.5,1.8,3.8L67.9,85.2c-0.4,0.5-0.7,1-1,1.6h-5.5c-0.2-0.6-0.5-1.1-1-1.6 L47.7,74.5c0.5-0.9,1-1.9,1.4-2.8C53.4,74.9,58.6,76.6,63.8,76.6z M42.8,80.9l0.5-0.3l0.4-0.4l1.7-1.8l12,10 c0.3,0.5,0.3,1.3-0.1,1.7l-4.8,7.7L41.3,81.9L42.8,80.9z M65.7,101.4l7.1,38.3h-16l7.1-38.3H65.7z M67.1,96.9h-5.4L60,94 c0,0,1.4-2.1,1.6-2.8h5.3c0.2,0.6,1.7,2.9,1.7,2.9L67.1,96.9z M71.3,90.1c-0.3-0.4-0.4-1.2-0.1-1.7l12-10l1.7,1.8l0.4,0.4l0.5,0.3 l1.4,0.9L76,97.8L71.3,90.1z M44.7,12.4C50,7.3,56.9,4.5,64.2,4.5c15.3,0,27.8,12.3,28.2,27.5c-0.9-1.7-2-3.2-3.3-4.4 c-7-6.5-17.9-4.9-18.3-4.8l-0.8,0.3c-13.7,8.5-22.8,4.8-23.2,4.6l-0.4-0.1c-3.5-0.8-7.5,1.3-10.2,4.3C36.3,24.5,39.3,17.6,44.7,12.4 z M37.4,43.3c-0.2-1.9-0.3-4.2,0-5.1c1.2-3.4,5.2-6.6,7.7-6.2c1.8,0.7,12.2,4,26.7-4.7c1.8-0.2,9.5-0.7,14.2,3.7 c3.2,2.9,4.7,7,4.2,13.3l0,0.6c-3.2,9.7-8.6,18-15,23.3c-3.3,2.7-7.2,4.1-11.4,4.1c-5.9,0-11.6-2.7-15.7-7.3 C43.2,59.1,39.3,51.2,37.4,43.3z M5.1,134.8c-1.5-13.9,0.3-25.8,0.3-25.9l0-0.2l0-0.2C6.7,88.8,34,84.1,34.2,84l0,0l0,0 c0.9-0.2,1.7-0.4,2.6-0.6l12.7,18.1c0.7,1.4,1.7,2.2,2.8,2.2c0.9,0,1.8-0.5,2.6-1.4l2.3-3.8l1.7,3h0.3l-7.1,38.3H30.4V133 c0-1.2-1-2.3-2.3-2.3c-1.2,0-2.3,1-2.3,2.3v6.8H10.8C8,139.7,5.4,137.4,5.1,134.8z M123.5,134.9c-0.2,2.6-2.8,4.9-5.5,4.9h-15.4V133 c0-1.2-1-2.3-2.3-2.3c-1.2,0-2.3,1-2.3,2.3v6.8H77.4l-7.2-39.1l1.1-2l2.2,3.6c0.8,1,1.7,1.4,2.6,1.4c1.1,0,2.2-0.7,2.8-2.2 l12.7-18.2c0.9,0.3,1.8,0.5,2.8,0.7l0,0l0,0c0.3,0,27.5,4.6,28.8,24.4l0,0.1l0,0.1C123.4,108.8,124.6,122.2,123.5,134.9z"></path> </svg> 