<?xml version="1.0" encoding="UTF-8"?> <!-- Generator: Adobe Illustrator 23.0.1, SVG Export Plug-In . SVG Version: 6.00 Build 0) --> <svg xmlns="http://www.w3.org/2000/svg" xmlns:xlink="http://www.w3.org/1999/xlink" id="Layer_1" x="0px" y="0px" viewBox="0 0 128 144.2" style="enable-background:new 0 0 128 144.2;" xml:space="preserve"> <path d="M103.5,94.3V20.9c0-6.4-5.2-11.6-11.6-11.6s-11.6,5.2-11.6,11.6v11.7c-1.9-1.5-4.4-2.4-7-2.4c-3.8,0-7.2,1.9-9.3,4.7 c-2.1-2.9-5.5-4.7-9.3-4.7c-2.6,0-5,0.9-7,2.4v-21C47.7,5.2,42.5,0,36.1,0S24.4,5.2,24.4,11.6v62.5v18.9v1.2c0,6.8,3.5,13,9.3,16.4 V121c-3.8,0-7,3.1-7,7v9.3c0,3.8,3.1,7,7,7h60.5c3.8,0,7-3.1,7-7V128c0-3.8-3.1-7-7-7v-10.3C100,107.3,103.5,101.1,103.5,94.3z M73.3,34.9c3.8,0,7,3.1,7,7v18.6v23.3c0,3.8-3.1,7-7,7c-3.8,0-7-3.1-7-7V70.6l1.9-0.8c4.5-1.9,7.4-6.2,7.4-11.2 c0-5.7-4-10.4-9.3-11.7v-5C66.3,38,69.4,34.9,73.3,34.9z M61.7,83.8c0,3.8-3.1,7-7,7s-7-3.1-7-7v-5.4l14-5.8V83.8z M54.7,34.9 c3.8,0,7,3.1,7,7v4.8c-0.9,0.1-1.8,0.4-2.7,0.7l-11.3,4.7V41.9C47.7,38,50.8,34.9,54.7,34.9z M29.1,11.6c0-3.8,3.1-7,7-7s7,3.1,7,7 v30.2v11.6v0.6l-7.3,3c-2.2,0.9-4.2,2.3-6,4c-0.3,0.3-0.5,0.6-0.8,0.8V11.6z M90.9,107.3l-1.3,0.6V121h-4.7v4.7h9.3 c1.3,0,2.3,1,2.3,2.3v9.3c0,1.3-1,2.3-2.3,2.3H33.7c-1.3,0-2.3-1-2.3-2.3V128c0-1.3,1-2.3,2.3-2.3h55.5V121H38.4v-13.1l-1.3-0.6 c-4.9-2.5-8-7.4-8-13v-1.2V74.2c0-3.7,1.4-7.2,4-9.8c1.3-1.3,2.8-2.3,4.5-3l23.2-9.7c0.9-0.4,1.9-0.6,2.8-0.6c4.1,0,7.4,3.3,7.4,7.5 c0,3-1.8,5.7-4.5,6.8L43,75.2v8.5c0,6.4,5.2,11.6,11.6,11.6c3.8,0,7.2-1.9,9.3-4.7c2.1,2.9,5.5,4.7,9.3,4.7 c6.4,0,11.6-5.2,11.6-11.6V60.5V41.9V20.9c0-3.8,3.1-7,7-7c3.8,0,7,3.1,7,7v73.4C98.9,99.8,95.8,104.8,90.9,107.3z"></path> </svg> 