<?xml version="1.0" encoding="UTF-8"?> <svg xmlns="http://www.w3.org/2000/svg" id="Layer_1" data-name="Layer 1" viewBox="0 0 153.4 86.9"> <defs> <style>.cls-1{fill:#3a57a7;}.cls-1,.cls-2{fill-rule:evenodd;}.cls-2{fill:#f8981d;}</style> </defs> <title>_verified-by-visa</title> <path class="cls-1" d="M172.9,105c-.2,1.7-.5,3.3-.8,4.9a13.7,13.7,0,0,0-5.5-1.1c-1.4.1-3.1.7-3.1,1.9s2.3,2.3,3.6,2.9,4.8,2.6,5,5.7a7.1,7.1,0,0,1-2.2,5.5c-3.2,3.1-10.5,3.4-15.5,1.4.4-1.6.6-3.3.9-5,1.9.8,4.5,1.9,7.4,1.5,1.3-.1,3-.9,2.9-2.2s-3.1-2.7-4.7-3.5-3.8-2.7-3.9-5.2a6.2,6.2,0,0,1,1.4-4.3C161,104.3,167.5,103.2,172.9,105Z" transform="translate(-41.6 -47.2)"></path> <polygon class="cls-1" points="72.5 25.6 79.1 25.6 75 51.3 68.4 51.3 72.5 25.6 72.5 25.6"></polygon> <path class="cls-1" d="M91.1,72.8h10.2c6.4,0,8.1,3.7,7.4,8.2a8.6,8.6,0,0,1-6.7,7l6.4,10.5h-8.3L95.3,88.4,93.7,98.5H87.1l4-25.7Zm5.8,5.1-1,6.5h1.9a4.2,4.2,0,0,0,4-3.3h0a2.8,2.8,0,0,0-2.9-3.2Z" transform="translate(-41.6 -47.2)"></path> <polygon class="cls-1" points="102.7 25.6 109.3 25.6 105.3 51.3 98.6 51.3 102.7 25.6 102.7 25.6"></polygon> <polygon class="cls-1" points="114.4 25.6 128.9 25.6 128 31.2 120.1 31.2 119.4 35.6 126.9 35.6 126 41.2 118.5 41.2 117.8 45.7 125.7 45.7 124.8 51.3 110.3 51.3 114.4 25.6 114.4 25.6"></polygon> <polygon class="cls-1" points="31 25.6 45.6 25.6 44.7 31.2 36.8 31.2 36.1 35.6 43.6 35.6 42.7 41.2 35.2 41.2 34.5 45.7 42.4 45.7 41.5 51.3 27 51.3 31 25.6 31 25.6"></polygon> <polygon class="cls-1" points="84.1 25.6 98.8 25.6 97.9 31.2 89.8 31.2 89.1 35.6 96.5 35.6 95.6 41.2 88.2 41.2 86.6 51.3 80 51.3 84.1 25.6 84.1 25.6"></polygon> <path class="cls-1" d="M174.4,72.8H183c10.3,0,12.7,7.8,11.9,12.9-1.2,7.2-7.7,12.8-15.9,12.8h-8.7l4.1-25.7Zm5.7,5.6h1.4c5.1,0,7,3.6,6.5,7a8.3,8.3,0,0,1-8.4,7.5h-1.8l2.3-14.5Z" transform="translate(-41.6 -47.2)"></path> <path class="cls-1" d="M41.6,69.3H53.9L55.3,88C63.4,73.9,71.7,60.4,80,47.2h4c-8.8,16.9-17.5,34-25.9,51.3h-9L46.9,77.9c-.5-5.1-1.6-7.3-5.3-7.8v-.8Z" transform="translate(-41.6 -47.2)"></path> <polygon class="cls-2" points="4.6 11.5 15.1 15.9 16 27.6 16.8 27.6 26.2 11.5 26.2 10.7 4.6 10.7 4.6 11.5 4.6 11.5"></polygon> <path class="cls-1" d="M94.5,116.9a2.6,2.6,0,0,1,2.4,3.2,3.6,3.6,0,0,1-3.3,3.3,2.6,2.6,0,0,1-2.4-3.3,3.8,3.8,0,0,1,3.3-3.2Zm-5.3-12.4h4.3L92,114.7a6.5,6.5,0,0,1,4.4-1.9c3.5,0,5.7,3.3,5.1,7.4s-3.8,7.4-7.3,7.4a4.1,4.1,0,0,1-3.7-2.1l-.2,1.6H86l3.2-22.6Z" transform="translate(-41.6 -47.2)"></path> <polygon class="cls-1" points="60.3 65.9 65.4 65.9 67.7 73.1 72.2 65.9 77.1 65.9 64.1 86.9 59.1 86.9 64.6 78 60.3 65.9 60.3 65.9"></polygon> <polygon class="cls-1" points="102.7 79.9 106.5 57.4 112.6 57.4 108.9 79.9 102.7 79.9 102.7 79.9"></polygon> <path class="cls-1" d="M139.2,104.5c-2.2,5-4,10.3-6.2,15.2l-.6-2.9h0v.6a14.2,14.2,0,0,0-2.3-4.4h-.1l-.6-.7-.3-.4a26.6,26.6,0,0,0-5.2-4.2l5.4,19.6H136c3.2-7.7,6.5-15,9.6-22.6Z" transform="translate(-41.6 -47.2)"></path> <path class="cls-2" d="M127.5,104.5h-10v.5c5.8,1.1,13.1,6,15,12.3l-2.2-10.5A2.5,2.5,0,0,0,127.5,104.5Z" transform="translate(-41.6 -47.2)"></path> <path class="cls-1" d="M193.7,127.2h-5.6c-.4-1.1-.5-2.4-.9-3.5h-7.7l-1.4,3.5h-6.5l8.4-19.3,1.3-2.6c.5-.8,2.1-.8,2.8-.8h4.7Zm-9.3-16.5-3.2,8.4h5.1Z" transform="translate(-41.6 -47.2)"></path> </svg> 