<?xml version="1.0" encoding="UTF-8"?> <svg xmlns="http://www.w3.org/2000/svg" id="Layer_1" data-name="Layer 1" viewBox="0 0 285.2 141.7"> <defs> <style>.cls-1{fill:#0066b3;}.cls-2{fill:#faa634;}.cls-3{fill:none;}</style> </defs> <title>_VISA</title> <polygon class="cls-1" points="130 92.7 107.6 92.7 121.6 6.9 144 6.9 130 92.7"></polygon> <path class="cls-1" d="M77.6,3.2,56.3,62.3,53.8,49.5h0L46.2,10.9s-.9-7.7-10.6-7.7H.4L0,4.7a82.2,82.2,0,0,1,23.4,9.8L42.8,89.1H66.1L101.7,3.2Z" transform="translate(11.2 3.7)"></path> <path class="cls-1" d="M253.4,89.1h20.5L256,3.2H238.1c-8.3,0-10.3,6.4-10.3,6.4L194.4,89.1h23.3l4.7-12.8h28.4ZM228.8,58.7l11.8-32.1,6.6,32.1Z" transform="translate(11.2 3.7)"></path> <path class="cls-1" d="M196.2,23.9l3.2-18.5a65.8,65.8,0,0,0-20.2-3.7c-11,0-37.4,4.8-37.4,28.4s30.9,22.5,30.9,34.1-27.7,9.6-36.8,2.2l-3.4,19.3s10,4.8,25.3,4.8S196,82.6,196,61.2,164.8,36.7,164.8,27,186.6,18.6,196.2,23.9Z" transform="translate(11.2 3.7)"></path> <path class="cls-2" d="M53.8,49.5,46.2,10.9s-.9-7.7-10.6-7.7H.4L0,4.7A87.2,87.2,0,0,1,33.2,21.3,67.5,67.5,0,0,1,53.8,49.5Z" transform="translate(11.2 3.7)"></path> <rect class="cls-3" width="141.7" height="141.73"></rect> </svg> 